<svg width="512" height="512" viewBox="0 0 512 512" fill="none" xmlns="http://www.w3.org/2000/svg">
<g clip-path="url(#clip0_1_27)">
<path fill-rule="evenodd" clip-rule="evenodd" d="M0 120.471V453.267C0 485.729 26.2956 512 58.7329 512H453.267C485.729 512 512 485.704 512 453.267V58.7329C512 26.2714 485.704 0 453.267 0H214.588V58.7005C214.588 91.1366 189.804 117.431 157.373 117.431H144.661L100.991 170.015L105.412 120.471H0ZM375.649 170.061C368.299 157.287 358.762 146.612 347.037 138.037C335.313 129.462 322.013 123.075 307.138 118.875C292.264 114.675 276.777 112.575 260.677 112.575C238.628 112.575 219.028 116.25 201.879 123.6C184.729 130.95 170.205 141.187 158.305 154.312C146.405 167.437 137.393 183.011 131.268 201.036C125.143 219.06 122.081 238.572 122.081 259.572C122.081 279.871 125.406 298.508 132.055 315.483C138.705 332.457 147.98 347.069 159.88 359.319C171.779 371.569 186.216 381.106 203.191 387.931C220.166 394.756 238.803 398.168 259.102 398.168C295.151 398.168 324.725 388.718 347.825 369.819C370.924 350.919 384.924 323.445 389.824 287.396H317.901C315.451 304.196 309.413 317.583 299.789 327.557C290.164 337.532 276.427 342.519 258.577 342.519C247.027 342.519 237.228 339.895 229.178 334.645C221.128 329.395 214.741 322.658 210.016 314.433C205.291 306.208 201.879 297.021 199.779 286.871C197.679 276.721 196.629 266.746 196.629 256.947C196.629 246.797 197.679 236.56 199.779 226.235C201.879 215.91 205.466 206.461 210.541 197.886C215.616 189.311 222.178 182.311 230.228 176.886C238.278 171.461 248.252 168.749 260.152 168.749C292.001 168.749 310.376 184.323 315.276 215.473H388.249C387.199 197.973 382.999 182.836 375.649 170.061Z" fill="#292A2C"/>
</g>
<defs>
<clipPath id="clip0_1_27">
<rect width="512" height="512" rx="58" fill="white"/>
</clipPath>
</defs>
</svg>
